HIERARCHY
ROOT Hips
{
	OFFSET 46.421398 -17.513813 83.930099
	CHANNELS 6 Xposition Yposition Zposition Xrotation Yrotation Zrotation
	JOINT spine
	{
		OFFSET 0.000000 -0.359108 6.244797
		CHANNELS 3 Xrotation Yrotation Zrotation
		JOINT spine1
		{
			OFFSET 0.000000 0.000000 9.069412
			CHANNELS 3 Xrotation Yrotation Zrotation
			JOINT spine2
			{
				OFFSET 0.000000 -0.000002 8.690140
				CHANNELS 3 Xrotation Yrotation Zrotation
				JOINT Neck
				{
					OFFSET 0.000000 -1.063725 22.311203
					CHANNELS 3 Xrotation Yrotation Zrotation
					JOINT Head
					{
						OFFSET 0.000000 -0.000002 6.740814
						CHANNELS 3 Xrotation Yrotation Zrotation
						End Site
						{
							OFFSET 0.000000 5.380968 16.316498
						}
					}
				}
				JOINT RightShoulder
				{
					OFFSET -3.659161 0.509512 9.384682
					CHANNELS 3 Xrotation Yrotation Zrotation
					JOINT RightArm
					{
						OFFSET 0.000000 -0.000002 12.308907
						CHANNELS 3 Xrotation Yrotation Zrotation
						JOINT RightArmRoll
						{
							OFFSET 0.000000 -0.000002 6.213745
							CHANNELS 3 Xrotation Yrotation Zrotation
							JOINT RightForeArm
							{
								OFFSET 0.000000 -0.000002 18.098495
								CHANNELS 3 Xrotation Yrotation Zrotation
								JOINT RightForeArmRoll
								{
									OFFSET 0.000000 -0.000002 6.972794
									CHANNELS 3 Xrotation Yrotation Zrotation
									JOINT RightHand
									{
										OFFSET 0.000000 -0.000002 13.992905
										CHANNELS 3 Xrotation Yrotation Zrotation
										End Site
										{
											OFFSET 0.000000 0.000000 0.100006
										}
									}
								}
							}
						}
					}
				}
				JOINT LeftShoulder
				{
					OFFSET 3.659161 0.509512 9.384682
					CHANNELS 3 Xrotation Yrotation Zrotation
					JOINT LeftArm
					{
						OFFSET 0.000000 -0.000002 12.308907
						CHANNELS 3 Xrotation Yrotation Zrotation
						JOINT LeftArmRoll
						{
							OFFSET 0.000000 -0.000002 6.213745
							CHANNELS 3 Xrotation Yrotation Zrotation
							JOINT LeftForeArm
							{
								OFFSET 0.000000 -0.000002 18.098495
								CHANNELS 3 Xrotation Yrotation Zrotation
								JOINT LeftForeArmRoll
								{
									OFFSET 0.000000 -0.000002 6.972794
									CHANNELS 3 Xrotation Yrotation Zrotation
									JOINT LeftHand
									{
										OFFSET 0.000000 -0.000002 13.992905
										CHANNELS 3 Xrotation Yrotation Zrotation
										End Site
										{
											OFFSET 0.000000 0.000000 0.100006
										}
									}
								}
							}
						}
					}
				}
			}
		}
	}
	JOINT RightUpLeg
	{
		OFFSET -5.535160 0.851454 -1.014999
		CHANNELS 3 Xrotation Yrotation Zrotation
		JOINT RightUpLegRoll
		{
			OFFSET 0.000000 -0.000002 16.407501
			CHANNELS 3 Xrotation Yrotation Zrotation
			JOINT RightLeg
			{
				OFFSET 0.000000 0.000002 -20.318100
				CHANNELS 3 Xrotation Yrotation Zrotation
				JOINT RightLegRoll
				{
					OFFSET 0.000000 -0.000002 20.384598
					CHANNELS 3 Xrotation Yrotation Zrotation
					JOINT RightFoot
					{
						OFFSET 0.000000 -0.000004 16.966797
						CHANNELS 3 Xrotation Yrotation Zrotation
						JOINT RightToeBase
						{
							OFFSET 0.000000 -0.000002 14.183395
							CHANNELS 3 Xrotation Yrotation Zrotation
							End Site
							{
								OFFSET 0.006012 0.791745 6.868896
							}
						}
					}
				}
			}
		}
	}
	JOINT LeftUpLeg
	{
		OFFSET 5.535160 0.851454 -1.014999
		CHANNELS 3 Xrotation Yrotation Zrotation
		JOINT LeftUpLegRoll
		{
			OFFSET 0.000000 -0.000002 16.407600
			CHANNELS 3 Xrotation Yrotation Zrotation
			JOINT LeftLeg
			{
				OFFSET 0.000000 -0.000004 20.318100
				CHANNELS 3 Xrotation Yrotation Zrotation
				JOINT LeftLegRoll
				{
					OFFSET 0.000000 -0.000004 20.573097
					CHANNELS 3 Xrotation Yrotation Zrotation
					JOINT LeftFoot
					{
						OFFSET 0.000000 -0.000002 16.778305
						CHANNELS 3 Xrotation Yrotation Zrotation
						JOINT LeftToeBase
						{
							OFFSET 0.000000 -0.000004 14.183395
							CHANNELS 3 Xrotation Yrotation Zrotation
							End Site
							{
								OFFSET -0.026943 0.791746 6.868896
							}
						}
					}
				}
			}
		}
	}
}
MOTION
Frames: 6
Frame Time: 0.041667
46.061695 -16.335814 83.719803 -4.548804 -0.742991 -3.110130 -1.255193 0.403006 0.077692 1.482676 0.805011 0.159724 3.127821 0.806867 0.150069 15.314029 -7.098662 1.424733 -4.072013 0.957250 1.957004 0.142743 -66.947738 -0.755186 119.458588 -30.478258 100.434325 -0.000008 0.000003 -0.000011 95.018361 -1.026936 -5.040001 0.000005 0.000004 -2.999999 -5.000023 -7.999999 0.000004 -13.454307 59.255675 15.877115 -56.898122 147.613680 82.917540 -0.000004 -0.000001 0.000009 90.042582 -0.629104 4.978837 0.000010 -0.000011 2.999989 -4.999853 8.000016 0.000001 -4.022086 -176.588407 1.817531 -179.999991 0.000005 -1.074999 160.778350 -0.861168 -1.305245 -0.000002 -0.000001 0.351507 74.949271 6.372617 3.240996 25.457283 -7.347694 0.000164 0.200614 176.324011 -3.379903 -0.000005 -0.000004 -1.227090 -21.615723 0.082330 1.026560 0.000006 -0.000005 -0.882561 78.426739 -6.612243 -2.256829 26.617517 7.322220 -1.694610 
46.058495 -16.341213 83.717690 -4.542707 -0.740842 -3.116910 -1.255844 0.402977 0.079515 1.480416 0.804931 0.163274 3.125561 0.806829 0.153621 15.305001 -7.102846 1.419243 -4.053063 0.945179 1.952881 0.090807 -66.929966 -0.811583 119.545331 -30.387324 99.981935 -0.000008 0.000001 -0.000010 95.013976 -1.006207 -5.101943 0.000007 0.000006 -3.000001 -5.000024 -7.999996 0.000003 -13.462936 59.220192 15.886067 -56.737248 147.705300 83.218601 -0.000007 -0.000002 0.000007 89.865987 -0.569172 4.979832 0.000009 -0.000009 2.999990 -4.999855 8.000011 0.000001 -4.026222 -176.584432 1.828784 -179.999991 0.000005 -1.074999 160.777968 -0.875329 -1.306185 -0.000000 -0.000001 0.352275 74.952235 6.377114 3.227024 25.457285 -7.347692 0.000164 0.193769 176.321019 -3.383474 -0.000005 -0.000004 -1.227040 -21.623824 0.085907 1.027480 0.000006 -0.000005 -0.882713 78.426145 -6.612226 -2.256962 26.620445 7.322169 -1.698881 
46.065598 -16.336012 83.703209 -4.536685 -0.738682 -3.123780 -1.256506 0.402928 0.081418 1.478166 0.804809 0.166990 3.123311 0.806752 0.157337 15.295775 -7.107379 1.413608 -4.034260 0.933606 1.948653 0.037587 -66.910295 -0.869213 119.635941 -30.297647 99.519585 -0.000006 0.000003 -0.000013 95.009502 -0.985077 -5.163912 0.000007 0.000004 -3.000001 -5.000027 -8.000002 0.000004 -13.472015 59.184477 15.895554 -56.576376 147.795417 83.530734 -0.000003 -0.000002 0.000009 89.683321 -0.506118 4.978599 0.000008 -0.000009 2.999991 -4.999855 8.000011 0.000001 -4.030241 -176.579460 1.839664 -179.999991 0.000005 -1.074998 160.777585 -0.888549 -1.306797 -0.000000 -0.000001 0.353054 74.955261 6.381523 3.213438 25.457285 -7.347692 0.000165 0.187217 176.318014 -3.387223 -0.000005 -0.000004 -1.226980 -21.631827 0.089585 1.028408 0.000006 -0.000005 -0.882858 78.425578 -6.612254 -2.257096 26.623374 7.322127 -1.703144 
46.064697 -16.341513 83.708405 -4.530745 -0.736553 -3.130714 -1.257221 0.402861 0.083380 1.475866 0.804650 0.170830 3.121011 0.806638 0.161179 15.286580 -7.112563 1.407948 -4.015576 0.923252 1.944390 -0.016168 -66.889094 -0.927272 119.729719 -30.208714 99.048419 -0.000005 0.000005 -0.000012 95.005001 -0.963643 -5.227875 0.000006 0.000002 -3.000001 -5.000023 -8.000005 0.000004 -13.481809 59.149083 15.905902 -56.415798 147.885166 83.852060 -0.000006 -0.000000 0.000007 89.494808 -0.439672 4.974259 0.000009 -0.000007 2.999992 -4.999855 8.000013 0.000002 -4.034216 -176.574501 1.849955 -179.999991 0.000005 -1.074998 160.776929 -0.901767 -1.308426 -0.000001 -0.000001 0.353832 74.958348 6.385788 3.200327 25.457285 -7.347691 0.000163 0.180895 176.315022 -3.391077 -0.000005 -0.000004 -1.226930 -21.639730 0.093359 1.029341 0.000006 -0.000005 -0.882996 78.425222 -6.612217 -2.257216 26.626295 7.322077 -1.707353 
46.070297 -16.348618 83.707504 -4.524879 -0.734504 -3.137636 -1.258030 0.402776 0.085383 1.473466 0.804453 0.174755 3.118610 0.806489 0.165105 15.277610 -7.118687 1.402372 -3.996972 0.914843 1.940201 -0.069717 -66.866589 -0.984969 119.826448 -30.120298 98.569909 -0.000005 0.000004 -0.000010 95.000821 -0.942249 -5.292862 0.000006 0.000006 -3.000000 -5.000022 -7.999998 0.000004 -13.492471 59.114406 15.917303 -56.256959 147.974587 84.182478 -0.000008 -0.000001 0.000009 89.300769 -0.369404 4.966145 0.000008 -0.000007 2.999989 -4.999852 8.000014 0.000001 -4.038245 -176.571510 1.859493 -179.999991 0.000005 -1.074999 160.776055 -0.914029 -1.308714 -0.000001 -0.000001 0.354603 74.961633 6.389755 3.188066 25.457285 -7.347692 0.000163 0.174742 176.312017 -3.395020 -0.000005 -0.000004 -1.226880 -21.647632 0.097223 1.030273 0.000008 -0.000005 -0.883125 78.424997 -6.612237 -2.257329 26.629127 7.322033 -1.711470 
46.070095 -16.361311 83.711700 -4.519070 -0.732575 -3.144519 -1.258981 0.402673 0.087402 1.470895 0.804222 0.178724 3.116039 0.806305 0.169077 15.269289 -7.126048 1.397024 -3.978425 0.909101 1.936155 -0.122320 -66.843045 -1.041507 119.926183 -30.031560 98.086209 -0.000006 0.000003 -0.000009 94.997065 -0.920900 -5.356810 0.000008 0.000005 -3.000002 -5.000019 -8.000000 0.000002 -13.504192 59.080925 15.930008 -56.100059 148.064745 84.519964 -0.000008 -0.000000 0.000008 89.101273 -0.295012 4.953290 0.000009 -0.000008 2.999991 -4.999854 8.000008 0.000005 -4.042409 -176.567534 1.867752 -179.999991 0.000005 -1.074998 160.774703 -0.924406 -1.309351 -0.000000 -0.000001 0.355355 74.965219 6.393388 3.176843 25.457283 -7.347692 0.000163 0.168696 176.309025 -3.399000 -0.000005 -0.000004 -1.226830 -21.655434 0.101167 1.031198 0.000005 -0.000005 -0.883246 78.424990 -6.612217 -2.257526 26.631848 7.321986 -1.715470 
